<?xml version="1.0" standalone="no"?>
<!DOCTYPE svg PUBLIC "-//W3C//DTD SVG 20010904//EN"
 "http://www.w3.org/TR/2001/REC-SVG-20010904/DTD/svg10.dtd">
<svg version="1.0" xmlns="http://www.w3.org/2000/svg"
 width="260.000000pt" height="200.000000pt" viewBox="0 0 260.000000 200.000000"
 preserveAspectRatio="xMidYMid meet">
<metadata>
Created by potrace 1.14, written by Peter Selinger 2001-2017
</metadata>
<g transform="translate(0.000000,200.000000) scale(0.100000,-0.100000)"
fill="#000000" stroke="none">
<path d="M1225 1961 c-298 -48 -535 -248 -625 -530 -161 -497 208 -1001 730
-1001 114 0 202 18 303 60 231 96 400 302 454 553 21 99 13 277 -17 372 -66
211 -227 397 -414 480 -131 58 -310 85 -431 66z m251 -62 c154 -28 291 -118
409 -268 76 -96 83 -107 66 -97 -11 7 -13 4 -7 -15 4 -13 11 -58 16 -99 5 -41
14 -100 20 -130 6 -30 10 -111 9 -180 -2 -69 1 -132 5 -141 4 -11 -1 -26 -17
-45 -13 -16 -28 -40 -32 -54 -12 -41 -74 -158 -86 -166 -9 -5 -10 -2 -5 12 5
10 22 57 39 103 30 81 30 84 12 97 -12 9 -19 26 -19 49 0 34 -1 36 -76 64 -41
16 -112 37 -157 46 -82 17 -83 17 -110 -5 -19 -15 -33 -42 -48 -93 -22 -77
-75 -200 -82 -193 -3 2 9 47 26 100 43 132 46 165 21 194 -20 24 -20 24 -125
12 -58 -6 -113 -14 -122 -17 -10 -4 -14 -2 -10 4 9 14 109 41 186 49 84 9 101
26 101 99 0 57 -15 141 -29 164 -7 11 -18 11 -62 1 -84 -20 -159 -50 -159 -64
0 -23 -36 -47 -67 -44 -34 2 -81 -31 -155 -110 -45 -48 -147 -195 -149 -213
-4 -50 0 -91 12 -105 31 -38 141 -113 253 -172 124 -65 118 -73 -14 -21 -79
32 -219 120 -259 163 -14 14 -33 26 -43 26 -24 0 -58 35 -58 61 0 11 -18 57
-40 102 -38 79 -60 151 -59 192 0 11 9 -7 20 -40 10 -33 36 -91 57 -130 36
-65 41 -70 74 -72 30 -2 37 2 42 21 8 34 100 171 152 226 24 26 62 60 84 75
22 15 40 30 40 34 0 3 -55 6 -123 6 -130 1 -203 18 -291 68 -39 22 -65 56 -33
44 12 -4 20 9 36 61 57 189 254 358 466 402 60 12 223 12 291 -1z"/>
<path d="M794 1394 c49 -18 182 -41 269 -47 52 -4 67 -2 67 9 0 7 12 21 26 31
24 16 29 16 54 1 25 -14 32 -14 81 3 l54 18 -295 0 c-267 0 -291 -2 -256 -15z"/>
<path d="M1500 1407 c0 -1 7 -34 15 -72 8 -39 15 -93 15 -122 0 -62 24 -87 95
-98 60 -8 135 -35 213 -74 85 -43 107 -37 116 32 9 80 7 191 -5 268 l-12 69
-218 0 c-121 0 -219 -1 -219 -3z"/>
<path d="M887 343 c-4 -3 -7 -21 -7 -40 0 -26 -4 -33 -20 -33 -11 0 -20 -6
-20 -14 0 -7 9 -16 20 -19 18 -5 20 -14 20 -87 0 -73 3 -83 25 -105 24 -25 49
-31 79 -19 25 10 19 34 -8 34 -44 0 -57 25 -54 104 l3 71 38 3 c54 5 51 32 -4
32 l-42 0 6 40 c4 33 2 40 -12 40 -10 0 -21 -3 -24 -7z"/>
<path d="M2098 313 c-2 -31 -7 -39 -25 -41 -28 -4 -31 -32 -4 -32 16 0 19 -10
23 -89 2 -52 9 -96 17 -105 18 -21 77 -31 96 -16 23 19 18 28 -17 32 -43 4
-59 36 -56 113 l3 60 38 3 c50 4 52 32 2 32 -34 0 -35 1 -35 40 0 33 -3 40
-19 40 -16 0 -20 -8 -23 -37z"/>
<path d="M651 275 c-25 -11 -36 -12 -41 -4 -8 12 -47 9 -42 -4 1 -4 2 -59 2
-122 l0 -115 25 0 c25 0 25 0 25 98 0 96 1 99 25 110 38 17 62 15 86 -9 19
-19 21 -30 17 -110 -4 -88 -4 -89 19 -89 23 0 23 2 23 104 0 84 -3 108 -17
124 -24 28 -80 36 -122 17z"/>
<path d="M1125 275 c-19 -11 -31 -12 -33 -6 -2 6 -12 11 -21 11 -17 0 -18 -12
-17 -125 0 -123 1 -125 23 -125 22 0 23 3 23 89 0 102 10 121 66 121 22 0 37
6 41 15 7 19 5 22 -27 29 -15 4 -37 0 -55 -9z"/>
<path d="M1280 283 c-24 -5 -40 -19 -40 -36 0 -4 21 -5 48 -2 63 9 102 -7 102
-40 0 -21 -5 -25 -27 -25 -48 0 -102 -20 -118 -43 -41 -59 6 -125 80 -112 22
4 56 7 75 7 l35 -1 -3 107 c-3 83 -8 111 -21 124 -17 19 -88 30 -131 21z"/>
<path d="M1590 274 c-22 -10 -36 -11 -38 -4 -2 5 -15 10 -29 10 -21 0 -24 -4
-19 -22 3 -13 6 -69 6 -125 l0 -103 26 0 25 0 -7 95 -7 94 36 17 c45 22 84 12
98 -24 7 -16 8 -58 4 -104 l-6 -78 25 0 26 0 0 94 c0 114 -8 140 -51 155 -40
14 -46 14 -89 -5z"/>
<path d="M1846 269 c-37 -29 -56 -71 -56 -124 0 -37 6 -52 33 -81 28 -31 39
-36 93 -41 48 -4 63 -2 77 12 27 26 20 33 -28 27 -56 -6 -102 12 -120 49 -8
15 -15 30 -15 34 0 3 41 5 90 5 l90 0 0 41 c0 84 -98 130 -164 78z"/>
</g>
</svg>
